<svg xmlns="http://www.w3.org/2000/svg" viewBox="0 0 280 520" fill="none" role="img" aria-hidden="true">
  <defs>
    <linearGradient id="bgGrad" x1="0" y1="0" x2="0" y2="1">
      <stop offset="0%" stop-color="#1e1b4b"/>
      <stop offset="100%" stop-color="#0c0a18"/>
    </linearGradient>
  </defs>
  <rect x="8" y="8" width="264" height="504" rx="28" fill="url(#bgGrad)" stroke="#a855f7" stroke-width="2"/>
  <rect x="88" y="24" width="104" height="6" rx="3" fill="#27272a"/>
  <text x="36" y="72" fill="#e9d5ff" font-family="system-ui,sans-serif" font-size="10" font-weight="600">Écran d'accueil</text>
  <rect x="36" y="96" width="52" height="52" rx="14" fill="#581c87" stroke="#a855f7" stroke-width="2"/>
  <rect x="36" y="96" width="52" height="52" rx="14" fill="#a855f7" opacity="0.15"/>
  <text x="36" y="162" fill="#c4b5fd" font-family="system-ui,sans-serif" font-size="8" text-anchor="middle" transform="translate(26 0)">NEXORIA</text>
  <rect x="108" y="96" width="52" height="52" rx="14" fill="#27272a"/>
  <rect x="180" y="96" width="52" height="52" rx="14" fill="#27272a"/>
  <rect x="36" y="180" width="52" height="52" rx="14" fill="#27272a"/>
  <rect x="108" y="180" width="52" height="52" rx="14" fill="#27272a"/>
  <g stroke="#22d3ee" stroke-width="2">
    <circle cx="62" cy="122" r="36" fill="none" stroke-dasharray="4 3"/>
    <path d="M62 86 L62 72" stroke="#22d3ee"/>
    <text x="62" y="68" fill="#67e8f9" font-family="system-ui,sans-serif" font-size="7" text-anchor="middle">Ouvre l'app</text>
  </g>
  <rect x="28" y="280" width="224" height="180" rx="16" fill="#120f24" stroke="#581c87"/>
  <text x="48" y="312" fill="#e9d5ff" font-family="system-ui,sans-serif" font-size="11" font-weight="700">NEXORIA</text>
  <text x="48" y="332" fill="#71717a" font-family="system-ui,sans-serif" font-size="8">Plein écran · Sans barre Safari</text>
  <rect x="48" y="348" width="184" height="8" rx="4" fill="#27272a"/>
  <rect x="48" y="364" width="140" height="8" rx="4" fill="#27272a"/>
  <rect x="48" y="396" width="100" height="28" rx="8" fill="#581c87"/>
  <text x="68" y="414" fill="#e9d5ff" font-family="system-ui,sans-serif" font-size="9">Jouer</text>
</svg>
